<svg width="39" height="19" viewBox="0 0 39 19" fill="none" xmlns="http://www.w3.org/2000/svg">
<path d="M2.02698 1.58254L2.0269 1.58246C1.98225 1.54258 1.89498 1.5 1.77267 1.5C1.65033 1.5 1.56304 1.5426 1.51843 1.58244C1.51814 1.58271 1.51785 1.58296 1.51756 1.58322C1.51783 1.58346 1.51809 1.58371 1.51836 1.58395L1.51857 1.58413L19.2454 17.4175L19.2456 17.4176C19.2869 17.4546 19.376 17.5 19.4996 17.5C19.6232 17.5 19.7123 17.4546 19.7538 17.4176L20.753 18.5363L19.7538 17.4175L37.4816 1.58422C37.4816 1.58422 37.4816 1.58422 37.4816 1.58421C37.4819 1.58393 37.4822 1.58366 37.4825 1.58339C37.4822 1.58311 37.4819 1.58283 37.4816 1.58255L37.4815 1.58246C37.4368 1.54258 37.3495 1.5 37.2272 1.5C37.1049 1.5 37.0176 1.5426 36.973 1.58244L36.973 1.58245L20.4988 16.2963L19.4996 17.1887L18.5004 16.2962L2.02698 1.58254Z" fill="#3461FF" stroke="#3461FF" stroke-width="3"/>
</svg>
